<?xml version="1.0" standalone="no"?>
<!DOCTYPE svg PUBLIC "-//W3C//DTD SVG 20010904//EN"
 "http://www.w3.org/TR/2001/REC-SVG-20010904/DTD/svg10.dtd">
<svg version="1.0" xmlns="http://www.w3.org/2000/svg"
 width="260.000000pt" height="260.000000pt" viewBox="0 0 260.000000 260.000000"
 preserveAspectRatio="xMidYMid meet">
<metadata>
Created by potrace 1.14, written by Peter Selinger 2001-2017
</metadata>
<g transform="translate(0.000000,260.000000) scale(0.100000,-0.100000)"
fill="#000000" stroke="none">
<path d="M1478 2495 c-2 -3 -20 -7 -39 -9 -19 -3 -34 -5 -34 -6 0 -2 10 0
-162 -37 l-131 -30 -11 23 c-15 34 -56 58 -78 46 -10 -6 -22 -10 -28 -11 -9
-1 -270 -105 -342 -137 -17 -8 -33 -14 -36 -14 -2 0 -26 -10 -53 -22 -27 -12
-51 -22 -54 -23 -10 -1 -125 -48 -135 -55 -12 -9 -67 -24 -77 -22 -5 1 -8 -2
-8 -7 0 -7 -24 -17 -50 -21 -3 -1 -15 -8 -27 -16 -13 -8 -23 -12 -23 -9 0 3
-10 0 -23 -7 -12 -6 -26 -13 -32 -14 -29 -6 -105 -47 -106 -57 -4 -31 2 -67
18 -103 9 -21 16 -42 15 -46 -1 -5 3 -8 10 -8 6 0 9 -3 6 -6 -4 -3 3 -27 14
-52 10 -26 23 -56 28 -67 9 -21 22 -56 25 -65 1 -3 9 -22 18 -44 9 -21 17 -41
17 -43 0 -3 6 -19 14 -36 8 -18 33 -79 56 -137 23 -58 47 -116 53 -130 6 -14
11 -27 12 -30 1 -3 6 -16 12 -30 6 -14 19 -45 28 -70 9 -25 23 -58 30 -75 51
-119 73 -175 70 -175 -3 0 3 -15 13 -33 15 -29 17 -68 16 -403 -1 -304 1 -374
13 -390 13 -18 37 -19 797 -22 737 -2 785 -1 805 15 20 17 21 27 24 228 l2
210 47 -3 c52 -3 87 20 89 58 2 21 5 38 9 43 3 4 11 42 14 73 1 16 5 34 8 40
4 5 9 27 13 49 4 22 10 49 12 60 2 11 6 31 9 45 3 14 12 54 20 90 8 36 17 76
19 90 3 14 9 43 14 65 5 22 12 56 15 76 3 20 8 42 10 50 3 8 8 25 10 39 4 21
78 373 92 435 2 11 6 31 9 45 3 14 7 36 11 50 3 14 7 34 9 45 1 11 10 49 18
85 9 36 17 77 20 91 7 46 -31 78 -95 82 -10 1 -18 4 -18 7 0 3 -10 6 -22 7
-13 1 -32 3 -43 6 -11 2 -38 8 -60 12 -22 5 -47 10 -55 12 -8 2 -26 5 -40 8
-112 20 -112 20 -107 53 9 57 -12 67 -153 76 -196 13 -234 16 -238 21 -2 2
-13 0 -23 -6 -11 -5 -19 -6 -19 -2 0 4 -26 9 -57 11 -31 1 -58 4 -61 6 -2 3
-6 22 -9 43 -6 44 -37 83 -68 83 -12 0 -24 -2 -27 -5z"/>
</g>
</svg>
